# xmcd
#
# Track frame offsets: 
#        150
#        4560
#        24057
#        40294
#        52813
#        71210
#        86122
#        102637
#        133404
#        146301
#        161014
#        175296
#        176969
#
# Disc length: 2417 seconds
#
# Revision: 2
# Processed by: cddbd v1.5.1PL0 Copyright (c) Steve Scherf et al.
# Submitted via: ExactAudioCopy v0.95a5
#
DISCID=b2096f0d
DTITLE=Joy Division - Space
DYEAR=1985
DGENRE=Blues
TTITLE0=Intro: Gregorian Chant
TTITLE1=Dead Souls (Live In London 02.08.79)
TTITLE2=Disorder (Live In London 02.08.79)
TTITLE3=Wilderness (Live In London 02.08.79)
TTITLE4=Autosuggestion (Live In London 02.08.79)
TTITLE5=Transmission (Live In London 02.08.79)
TTITLE6=Shadowplay (Live In Blackpool 27.07.79)
TTITLE7=Atrocity Exhibition (Live In Blackpool 27.07.79)
TTITLE8=Unknown (Demo with Orange Juice from 1980)
TTITLE9=Unknown (Demo with Orange Juice from 1980)
TTITLE10=Unknown (Demo with Orange Juice from 1980)
TTITLE11=Unknown (Demo with Orange Juice from 1980)
TTITLE12=Outro: Gregorian Chant
EXTD=
EXTT0=
EXTT1=
EXTT2=
EXTT3=
EXTT4=
EXTT5=
EXTT6=
EXTT7=
EXTT8=
EXTT9=
EXTT10=
EXTT11=
EXTT12=
PLAYORDER=
